# xmcd
#
# Track frame offsets:
#  150
#  17419
#  33286
#  56686
#  80497
#  100950
#  114344
#  134577
#  153585
#  175441
#  192057
#  207605
#  229068
#  245857
#
# Disc length: 3471 seconds
#
# Revision: 1
# Processed by: cddbd v1.5.1PL2 Copyright (c) Steve Scherf et al.
# Submitted via: Collectorz.com_Music_Collector 6.11
#
DISCID=c10d8d0e
DTITLE=Kelly, Vivian Vance - Hit Me Up
DYEAR=2006
DGENRE=Blues
TTITLE0=Got My Mojo Working
TTITLE1=Steppin' Out
TTITLE2=Down Home Blues
TTITLE3=Mustang Sally
TTITLE4=Stand By Me
TTITLE5=Sweet Home Chicago
TTITLE6=Proud Mary
TTITLE7=Black Draws
TTITLE8=Down Home Blues
TTITLE9=Get Down, Get Funky, Get Loose
TTITLE10=Steppin' Out
TTITLE11=As Simple As This
TTITLE12=Sweet Home Chicago
TTITLE13=Hit Me Up
EXTD=
EXTT0=
EXTT1=
EXTT2=
EXTT3=
EXTT4=
EXTT5=
EXTT6=
EXTT7=
EXTT8=
EXTT9=
EXTT10=
EXTT11=
EXTT12=
EXTT13=
PLAYORDER=
